OpenSim_Sub03_EMGBaseline_GRF.mot
version=1
nRows=23
nColumns=19
inDegrees=no
endheader
time	lFx	lFy	lFz	lCOPx	lCOPy	lCOPz	rFx	rFy	rFz	rCOPx	rCOPy	rCOPz	lMx	lMy	lMz	rMx	rMy	rMz
55.29000000	-26.15052801	740.63182181	53.87917207	1.44431099	0	-0.64053723	-0.13957334	1.79436622	0.18317529	-0.00001198	0	0.00000430	0	4.80479286	0	0	0.00000982	0.00000000
55.30000000	-23.47611740	733.52770178	53.75254135	1.43852362	0	-0.64116800	-0.19407754	1.90984476	0.09750719	-0.00000027	0	0.00000005	0	4.32265028	0	0	0.00000565	0.00000000
55.31000000	-20.89662969	727.31019858	53.60367951	1.43247054	0	-0.64175284	-0.25118761	1.92997147	0.01053661	0.00000294	0	-0.00000109	0	3.79110513	0	0	0.00000197	-0.00000000
55.32000000	-18.48538924	722.08837302	53.25354295	1.42620021	0	-0.64231448	-0.28209664	1.80776344	-0.03629828	0.00000244	0	-0.00000089	0	3.24465612	0	0	0.00000010	-0.00000000
55.33000000	-16.38173398	718.04869624	52.75076433	1.41988596	0	-0.64284009	-0.27661370	1.66430140	-0.07199625	0.00000120	0	-0.00000043	0	2.76259843	0	0	-0.00000044	-0.00000000
55.34000000	-14.46397585	715.18448069	52.18835796	1.41351016	0	-0.64331301	-0.24387781	1.60728996	-0.04754498	0.00000032	0	-0.00000011	0	2.40383471	0	0	-0.00000038	-0.00000000
55.35000000	-12.51404935	713.31338798	51.59431558	1.40702891	0	-0.64372457	-0.20747896	1.62610340	-0.02891784	-0.00000006	0	0.00000002	0	2.12851359	0	0	-0.00000019	-0.00000000
55.36000000	-10.44347314	712.19558322	51.02304950	1.40069708	0	-0.64409717	-0.15398242	1.57261743	-0.06880389	-0.00000013	0	0.00000005	0	1.84876024	0	0	-0.00000005	0.00000000
55.37000000	-8.39935012	711.56977949	50.56683741	1.39467430	0	-0.64445192	-0.08731038	1.46307237	-0.04148923	-0.00000009	0	0.00000003	0	1.50963467	0	0	0.00000001	0.00000000
55.38000000	-6.29897252	711.15650999	50.18626750	1.38862868	0	-0.64476426	-0.03167923	1.45456818	0.06309359	-0.00000004	0	0.00000001	0	1.13788900	0	0	0.00000002	-0.00000000
55.39000000	-3.96545754	710.76518094	49.83933785	1.38228356	0	-0.64501293	0.01191085	1.60579610	0.12704827	-0.00000001	0	0.00000000	0	0.78888501	0	0	0.00000001	0.00000000
55.40000000	-1.37212810	710.25730529	49.53116089	1.37566006	0	-0.64520267	0.03854572	1.77112925	0.13026913	0.00000001	0	-0.00000000	0	0.49743800	0	0	0.00000000	0.00000000
55.41000000	1.24394332	709.76085703	49.28746903	1.36887473	0	-0.64537422	0.04775190	1.84542682	0.14896767	0.00000001	0	-0.00000000	0	0.25128927	0	0	-0.00000000	0.00000000
55.42000000	3.79426166	709.51806041	49.08948465	1.36190862	0	-0.64554988	0.03513865	1.86257322	0.16322205	0.00000001	0	-0.00000000	0	0.05000106	0	0	-0.00000000	-0.00000000
55.43000000	6.34823770	709.87669011	48.91298862	1.35474242	0	-0.64572393	0.03413584	1.86172464	0.16997408	-0.00000001	0	0.00000000	0	-0.12855681	0	0	0.00000001	-0.00000000
55.44000000	8.96509454	711.09657789	48.74610593	1.34758754	0	-0.64585873	0.02221797	1.81329715	0.18701266	-0.00000007	0	0.00000002	0	-0.31891167	0	0	0.00000003	-0.00000000
55.45000000	11.51647081	713.30157753	48.64248786	1.34069138	0	-0.64593654	-0.02579747	1.70305863	0.21334350	-0.00000014	0	0.00000004	0	-0.52875861	0	0	0.00000005	0.00000000
55.46000000	13.94906900	716.32957714	48.68751167	1.33388058	0	-0.64589798	-0.10867393	1.54450135	0.17075404	-0.00000018	0	0.00000005	0	-0.71115816	0	0	0.00000005	0.00000000
55.47000000	16.48332171	719.60195481	48.84717755	1.32695027	0	-0.64569612	-0.16615381	1.39011393	0.08492696	-0.00000003	0	0.00000001	0	-0.82920174	0	0	-0.00000005	0.00000000
55.48000000	19.28710316	722.61275354	49.08841893	1.31988848	0	-0.64533091	-0.17633342	1.34353000	0.05973496	0.00000061	0	-0.00000017	0	-0.86877150	0	0	-0.00000036	0.00000000
55.49000000	22.31467750	725.37021257	49.37072004	1.31284412	0	-0.64488032	-0.16927578	1.45546770	0.05746805	0.00000198	0	-0.00000055	0	-0.85594677	0	0	-0.00000088	0.00000000
55.50000000	25.43236579	728.29434319	49.66639735	1.30588744	0	-0.64446050	-0.17142168	1.62413155	0.04394044	0.00000373	0	-0.00000104	0	-0.83940197	0	0	-0.00000136	0.00000000
55.51000000	28.73637452	731.75537844	49.98603133	1.29885885	0	-0.64411438	-0.18996011	1.70287177	0.10757856	0.00000390	0	-0.00000110	0	-0.85040535	0	0	-0.00000080	-0.00000000
